<?xml version="1.0" standalone="no"?>
<!DOCTYPE svg PUBLIC "-//W3C//DTD SVG 20010904//EN"
 "http://www.w3.org/TR/2001/REC-SVG-20010904/DTD/svg10.dtd">
<svg version="1.0" xmlns="http://www.w3.org/2000/svg"
 width="512.000000pt" height="512.000000pt" viewBox="0 0 512.000000 512.000000"
 preserveAspectRatio="xMidYMid meet">

<g transform="translate(0.000000,512.000000) scale(0.100000,-0.100000)"
fill="#FFFFFF" stroke="none">
<path d="M491 5104 c-177 -39 -342 -170 -425 -338 -96 -195 -85 -416 31 -611
27 -45 231 -256 802 -827 l765 -768 -765 -767 c-832 -834 -821 -821 -871 -983
-32 -105 -32 -255 0 -360 97 -314 412 -502 729 -436 83 18 143 43 220 92 39
24 315 293 821 797 l762 762 763 -761 c419 -419 784 -776 810 -793 355 -239
833 -70 959 339 32 105 32 255 0 360 -50 162 -39 149 -871 983 l-765 767 761
763 c759 760 805 810 854 924 129 300 -8 660 -305 807 -201 99 -427 85 -623
-40 -39 -24 -315 -293 -820 -797 l-763 -761 -762 761 c-506 504 -782 773 -821
797 -151 96 -317 127 -486 90z"/>
</g>
</svg>
